<svg width="60" height="26" viewBox="0 0 60 26" fill="none" xmlns="http://www.w3.org/2000/svg">
<path d="M4.08374 9.30292H4.01594V18.5027C4.01594 19.2702 4.62944 19.8983 5.37944 19.8983H6.55501V23.1048C6.55501 23.875 7.16547 24.4997 7.91829 24.4997C8.67097 24.4997 9.28124 23.875 9.28152 23.1048V19.8983H11.1185V23.1048C11.1185 23.875 11.7293 24.4997 12.4821 24.4997C13.2349 24.4997 13.8449 23.875 13.8454 23.1048V19.8983H14.991C15.741 19.8983 16.3543 19.2702 16.3543 18.5027V9.30292H4.08374ZM6.79958 5.98866C6.79958 6.31622 7.0589 6.58179 7.37888 6.58179C7.69888 6.58179 7.95845 6.31622 7.95845 5.98866C7.95845 5.6611 7.69888 5.39553 7.37888 5.39553C7.0589 5.39553 6.79958 5.6611 6.79958 5.98866ZM12.4121 5.98866C12.4121 6.31622 12.6715 6.58179 12.9915 6.58179C13.3115 6.58179 13.5709 6.31622 13.5709 5.98866C13.5709 5.6611 13.3115 5.39553 12.9915 5.39553C12.6715 5.39553 12.4121 5.6611 12.4121 5.98866ZM4.03135 8.81472C4.02895 8.75102 4.02737 8.68733 4.02737 8.62335C4.02737 8.19542 4.07999 7.77886 4.17927 7.37851C4.56195 5.8354 5.64095 4.53284 7.09941 3.75972L6.15322 1.97293C6.09486 1.86261 6.13481 1.72499 6.24241 1.66528C6.34993 1.60557 6.48449 1.6465 6.54277 1.75655L7.50015 3.56467C8.31451 3.20299 9.2295 3.00025 10.1964 3.00025C11.1562 3.00025 12.0645 3.20015 12.8742 3.55671L13.8276 1.75655C13.8859 1.64651 14.0203 1.60557 14.1278 1.66528C14.2353 1.72499 14.2753 1.86261 14.217 1.97293L13.2759 3.75006C14.8059 4.55503 15.9212 5.94146 16.2587 7.57784C16.297 7.76294 16.3251 7.95117 16.3428 8.14196V8.81472H4.03127H4.03135ZM19.5624 10.4542C19.5624 9.68393 18.9518 9.05924 18.199 9.05924C17.4462 9.05924 16.8359 9.68393 16.8357 10.4542V16.3162C16.8357 17.0867 17.4462 17.7114 18.199 17.7114C18.9518 17.7114 19.5621 17.0867 19.5624 16.3162V10.4542ZM3.52754 10.4542V16.3162C3.52754 17.0867 2.91688 17.7114 2.16404 17.7114C1.41132 17.7114 0.801101 17.0867 0.800781 16.3162V10.4542C0.800781 9.68393 1.41132 9.05924 2.16404 9.05924C2.91688 9.05924 3.52722 9.68393 3.52754 10.4542Z" fill="#6EC848"/>
<path d="M59.0487 6.13936H57.2893L53.4681 15.507H54.249L50.4387 6.1502H48.627L52.9476 16.4129L52.604 17.2121C52.219 18.0967 51.4901 18.4802 50.7926 18.4802H50.2198V20.0897H50.7718C52.3229 20.0897 53.5515 19.2372 54.2073 17.6173L59.0487 6.13936ZM47.6901 16.8072V6.1502H46.1284V7.36523C45.2537 6.46978 44.0462 5.93698 42.6718 5.93698C39.6943 5.93698 37.3518 8.4095 37.3518 11.4679C37.3518 14.5374 39.6943 17.0204 42.6718 17.0204C44.0462 17.0204 45.2537 16.4769 46.1284 15.5923V16.8072H47.6901ZM42.7865 15.4646C40.652 15.4646 38.9238 13.6741 38.9238 11.4679C38.9238 9.27288 40.652 7.48229 42.7865 7.48229C44.119 7.48229 45.3787 8.12183 46.0242 9.21932C46.0553 9.2833 46.1284 9.38992 46.1284 9.57106V13.3542C46.1178 13.5462 46.0553 13.6636 46.014 13.7168C45.3162 14.7825 44.119 15.4646 42.7865 15.4646ZM27.5236 20.0043V15.5923C28.3982 16.4876 29.6059 17.031 30.9801 17.031C33.9473 17.031 36.3002 14.5479 36.3002 11.4895C36.3002 8.42007 33.9473 5.93698 30.9801 5.93698C29.6059 5.93698 28.3982 6.48055 27.5236 7.36523V6.1502H25.9619V20.0043H27.5236ZM30.8657 15.4751C29.533 15.4751 28.294 14.8251 27.6277 13.7381C27.5861 13.6741 27.5236 13.5675 27.5236 13.3863V9.56054C27.5341 9.37916 27.5964 9.26198 27.6381 9.2089C28.3357 8.14316 29.533 7.49283 30.8657 7.49283C32.9895 7.49283 34.7178 9.28329 34.7178 11.4895C34.7178 13.6846 32.9895 15.4751 30.8657 15.4751Z" fill="#7B7979"/>
</svg>
