<svg width="52" height="21" viewBox="0 0 52 21" fill="none" xmlns="http://www.w3.org/2000/svg">
<path d="M9.50138 2.70742C8.89194 3.41675 7.91683 3.97621 6.94171 3.89629C6.81982 2.9372 7.29722 1.91817 7.85588 1.28877C8.46533 0.559467 9.53185 0.0399619 10.3952 0C10.4968 0.999049 10.1007 1.97812 9.50138 2.70742ZM10.3851 4.08611C8.9732 4.00619 7.76446 4.87536 7.09407 4.87536C6.41353 4.87536 5.38763 4.12607 4.27031 4.14605C2.8178 4.16603 1.46687 4.97526 0.725376 6.26403C-0.798236 8.84158 0.329237 12.6579 1.80206 14.7559C2.52324 15.795 3.38662 16.9339 4.52425 16.8939C5.60093 16.854 6.02755 16.2046 7.32769 16.2046C8.638 16.2046 9.01383 16.8939 10.1515 16.8739C11.3297 16.8539 12.0712 15.8349 12.7924 14.7959C13.6151 13.617 13.9503 12.4681 13.9706 12.4082C13.9503 12.3882 11.6954 11.539 11.6751 8.98145C11.6548 6.84348 13.4526 5.82445 13.5339 5.76451C12.5181 4.28592 10.9336 4.12607 10.3851 4.08611ZM18.5415 1.18887V16.764H20.9996V11.4391H24.4023C27.5105 11.4391 29.6943 9.3411 29.6943 6.304C29.6943 3.26689 27.5511 1.18887 24.4836 1.18887H18.5415ZM20.9996 3.22693H23.8335C25.9665 3.22693 27.1854 4.34586 27.1854 6.31399C27.1854 8.28211 25.9666 9.41104 23.8233 9.41104H20.9996V3.22693ZM34.1839 16.8839C35.7278 16.8839 37.16 16.1147 37.8101 14.8958H37.8609V16.764H40.1361V9.01142C40.1361 6.76356 38.3078 5.31494 35.4942 5.31494C32.8837 5.31494 30.9538 6.78354 30.8827 8.80162H33.0971C33.2799 7.84253 34.1839 7.21313 35.4231 7.21313C36.9264 7.21313 37.7695 7.90247 37.7695 9.17127V10.0304L34.7019 10.2103C31.8477 10.3801 30.3038 11.529 30.3038 13.5271C30.3038 15.5452 31.8985 16.8839 34.1839 16.8839ZM34.8441 15.0357C33.5338 15.0357 32.7009 14.4163 32.7009 13.4672C32.7009 12.4881 33.5033 11.9186 35.0371 11.8287L37.7695 11.6589V12.5381C37.7695 13.9967 36.5099 15.0357 34.8441 15.0357ZM43.1732 21C45.5704 21 46.6978 20.1009 47.6831 17.3735L52 5.4648H49.5013L46.6064 14.666H46.5556L43.6608 5.4648H41.0909L45.2555 16.804L45.032 17.4933C44.6562 18.6622 44.0467 19.1118 42.9599 19.1118C42.7669 19.1118 42.3911 19.0918 42.2387 19.0718V20.9401C42.3809 20.98 42.9904 21 43.1732 21Z" fill="black"/>
</svg>
