<svg width="38" height="38" viewBox="0 0 38 38" fill="none" xmlns="http://www.w3.org/2000/svg">
<path fill-rule="evenodd" clip-rule="evenodd" d="M2.90413 10.7556C2.90413 11.3278 2.44422 11.7919 1.87515 11.7919C1.30697 11.7919 0.847063 11.3278 0.847063 10.7556V5.89911C0.847063 3.11266 3.0965 0.846191 5.86311 0.846191H10.7798C11.3489 0.846191 11.8097 1.3103 11.8097 1.88255C11.8097 2.4548 11.3489 2.91891 10.7798 2.91891H5.86311C4.23196 2.91891 2.90413 4.25536 2.90413 5.89911V10.7556ZM32.7523 0.846191H27.9304C27.3622 0.846191 26.9014 1.3103 26.9014 1.88255C26.9014 2.4548 27.3622 2.91891 27.9304 2.91891H32.7523C34.3843 2.91891 35.7122 4.25536 35.7122 5.89911V10.852C35.7122 11.4242 36.1721 11.8875 36.7402 11.8875C37.3093 11.8875 37.7692 11.4242 37.7692 10.852V5.89911C37.7692 3.11266 35.5189 0.846191 32.7523 0.846191ZM10.045 17.2238V14.3067C10.045 13.5596 10.6454 12.9549 11.3872 12.9549C12.129 12.9549 12.7293 13.5596 12.7293 14.3067V17.2238C12.7293 17.9709 12.129 18.5756 11.3872 18.5756C10.6454 18.5756 10.045 17.9709 10.045 17.2238ZM28.5708 17.2241C28.5708 17.9711 27.9704 18.5758 27.2287 18.5758C26.4869 18.5758 25.8865 17.9711 25.8865 17.2241V14.3069C25.8865 13.5599 26.4869 12.9552 27.2287 12.9552C27.9704 12.9552 28.5708 13.5599 28.5708 14.3069V17.2241ZM17.2932 24.1018H17.9445C19.6133 24.1018 20.9697 22.7347 20.9697 21.054V14.0671C20.9697 13.4949 20.5098 13.0308 19.9417 13.0308C19.3726 13.0308 18.9127 13.4949 18.9127 14.0671V21.054C18.9127 21.5911 18.4778 22.0291 17.9445 22.0291H17.2932C16.7241 22.0291 16.2642 22.4932 16.2642 23.0654C16.2642 23.6377 16.7241 24.1018 17.2932 24.1018ZM19.3214 28.7043C21.4331 28.7043 23.4284 27.9158 24.5281 26.6478C24.903 26.2171 25.5535 26.1729 25.9803 26.5487C26.4089 26.9254 26.4518 27.5805 26.0778 28.0113C24.5773 29.7434 22.0505 30.777 19.3214 30.777C16.5683 30.777 14.0316 29.729 12.5329 27.9753C12.1615 27.5409 12.2099 26.8866 12.6411 26.5135C13.0706 26.1405 13.7211 26.1891 14.0924 26.6235C15.1885 27.9068 17.1928 28.7043 19.3214 28.7043ZM36.7402 26.7279C36.1721 26.7279 35.7122 27.192 35.7122 27.7642V32.7162C35.7122 34.36 34.3843 35.6964 32.7523 35.6964H27.9304C27.3622 35.6964 26.9014 36.1605 26.9014 36.7328C26.9014 37.305 27.3622 37.7691 27.9304 37.7691H32.7523C35.5189 37.7691 37.7692 35.5027 37.7692 32.7162V27.7642C37.7692 27.192 37.3093 26.7279 36.7402 26.7279ZM5.86313 35.6966H10.7799C11.3489 35.6966 11.8088 36.1607 11.8088 36.7329C11.8088 37.3052 11.3489 37.7693 10.7799 37.7693H5.86313C3.09652 37.7693 0.846191 35.5028 0.846191 32.7164V27.8599C0.846191 27.2877 1.307 26.8236 1.87517 26.8236C2.44424 26.8236 2.90415 27.2877 2.90415 27.8599V32.7164C2.90415 34.3601 4.23198 35.6966 5.86313 35.6966Z" fill="#EEC946"/>
</svg>
