<svg width="36" height="23" viewBox="0 0 36 23" fill="none" xmlns="http://www.w3.org/2000/svg">
<path d="M22.869 20.5428H13.1318V2.46045H22.869V20.5428Z" fill="#FF5F00"/>
<path d="M13.7549 11.5C13.7549 7.8319 15.417 4.56446 18.0053 2.4588C16.1125 0.919032 13.7238 -8.85511e-07 11.1278 -8.85511e-07C4.98192 -8.85511e-07 0 5.14864 0 11.5C0 17.8514 4.98192 23 11.1278 23C13.7238 23 16.1125 22.081 18.0053 20.5412C15.417 18.4355 13.7549 15.1681 13.7549 11.5Z" fill="#EB001B"/>
<path d="M36.0001 11.5C36.0001 17.8514 31.0182 23 24.8723 23C22.2763 23 19.8876 22.081 17.9941 20.5412C20.5831 18.4355 22.2452 15.1681 22.2452 11.5C22.2452 7.8319 20.5831 4.56446 17.9941 2.4588C19.8876 0.919032 22.2763 -8.85511e-07 24.8723 -8.85511e-07C31.0182 -8.85511e-07 36.0001 5.14864 36.0001 11.5Z" fill="#F79E1B"/>
</svg>
