<svg width="22" height="22" viewBox="24 24 24 24" fill="none" xmlns="http://www.w3.org/2000/svg">
<path fill-rule="evenodd" clip-rule="evenodd" d="M32.5423 41.2337C27.8245 41.2337 24 37.3758 24 32.6169C24 27.8579 27.8245 24 32.5423 24C37.2601 24 41.0846 27.8579 41.0846 32.6169C41.0846 34.3417 40.5822 35.9482 39.717 37.2955C39.8013 37.3537 39.8815 37.4209 39.9562 37.497L45.523 43.1684C46.1588 43.8162 46.1588 44.8664 45.523 45.5142C44.8872 46.162 43.8563 46.162 43.2205 45.5142L37.6537 39.8428C37.5922 39.7801 37.5366 39.7137 37.487 39.6442C36.0915 40.6452 34.3851 41.2337 32.5423 41.2337ZM32.5423 39.4201C36.2668 39.4201 39.2862 36.3743 39.2862 32.6173C39.2862 28.8602 36.2668 25.8145 32.5423 25.8145C28.8177 25.8145 25.7983 28.8602 25.7983 32.6173C25.7983 36.3743 28.8177 39.4201 32.5423 39.4201Z" fill="#EEC946"/>
</svg>
