<svg width="20" height="15" viewBox="0 0 20 15" fill="none" xmlns="http://www.w3.org/2000/svg">
<path d="M1 6.5C0.447715 6.5 0 6.94771 0 7.5C0 8.05228 0.447715 8.5 1 8.5V6.5ZM18 7.5L18.7189 8.19516L19.3911 7.5L18.7189 6.80484L18 7.5ZM10.9954 13.3048C10.6115 13.7019 10.6221 14.3349 11.0191 14.7189C11.4161 15.1028 12.0492 15.0922 12.4331 14.6952L10.9954 13.3048ZM12.4331 0.304842C12.0492 -0.0921719 11.4161 -0.102782 11.0191 0.281143C10.6221 0.665069 10.6115 1.29814 10.9954 1.69516L12.4331 0.304842ZM1 8.5H18V6.5H1V8.5ZM17.2811 6.80484L10.9954 13.3048L12.4331 14.6952L18.7189 8.19516L17.2811 6.80484ZM18.7189 6.80484L12.4331 0.304842L10.9954 1.69516L17.2811 8.19516L18.7189 6.80484Z" fill="#3D3D3D"/>
</svg>
