<svg width="100" height="100" viewBox="0 0 100 100" fill="none" xmlns="http://www.w3.org/2000/svg">
<path d="M82.4882 50.0006C82.4882 67.9439 67.9419 82.4892 49.9987 82.4892C32.0555 82.4892 17.5093 67.9439 17.5093 50.0006C17.5093 32.0572 32.0555 17.5108 49.9987 17.5108C67.9419 17.5108 82.4882 32.0572 82.4882 50.0006Z" fill="#EEC946"/>
<path d="M50.0024 17.5065C48.4785 17.5086 46.9568 17.6162 45.4482 17.8303C61.4712 20.0976 73.3824 33.8128 73.3824 49.9951C73.3824 66.1785 61.4712 79.8938 45.4482 82.161C57.4912 83.8858 69.4903 78.7377 76.5378 68.8212C83.5864 58.9037 84.5043 45.8801 78.9159 35.0732C73.3264 24.2664 62.1695 17.4867 50.0024 17.5065Z" fill="#FABE02"/>
<path d="M50.0026 11.8312C48.9157 11.8312 48.0352 10.9496 48.0352 9.86375V1.96748C48.0352 0.881633 48.9157 0 50.0026 0C51.0896 0 51.9701 0.881633 51.9701 1.96748V9.86155C51.9712 10.3831 51.7637 10.8848 51.3948 11.2537C51.0259 11.6237 50.5252 11.8312 50.0026 11.8312Z" fill="#EEC946"/>
<path d="M29.9326 17.2089C29.2288 17.2089 28.5788 16.8334 28.2264 16.2251L24.2794 9.38724C23.7447 8.44632 24.0697 7.25178 25.0062 6.7105C25.9427 6.16922 27.1406 6.48652 27.6873 7.41976L31.6343 14.2576C31.9846 14.8659 31.9846 15.6147 31.6332 16.2229C31.283 16.8312 30.6341 17.2067 29.9326 17.2089Z" fill="#EEC946"/>
<path d="M15.238 31.8969C14.8911 31.898 14.5507 31.808 14.251 31.6356L7.41318 27.6875C6.79944 27.3383 6.41956 26.6873 6.41847 25.9813C6.41627 25.2753 6.79286 24.6232 7.40549 24.2718C8.01813 23.9194 8.77129 23.9227 9.38064 24.2806L16.2184 28.2277C16.9903 28.6723 17.3669 29.5814 17.1363 30.4411C16.9046 31.3018 16.124 31.9002 15.2336 31.8991L15.238 31.8969Z" fill="#EEC946"/>
<path d="M84.76 31.8969C83.8685 31.898 83.0878 31.3007 82.8573 30.4399C82.6256 29.5791 83.0022 28.6701 83.774 28.2254L90.6118 24.2773C91.5516 23.7437 92.7473 24.0676 93.2885 25.0041C93.8287 25.9406 93.5125 27.1385 92.5793 27.6852L85.7415 31.6323C85.4429 31.8057 85.1047 31.8969 84.76 31.8969Z" fill="#EEC946"/>
<path d="M70.0654 17.2089C69.3638 17.2067 68.7149 16.8312 68.3647 16.2229C68.0134 15.6147 68.0134 14.8659 68.3636 14.2576L72.3106 7.41977C72.6598 6.80603 73.3108 6.42615 74.0168 6.42395C74.7227 6.42285 75.376 6.79944 75.7273 7.41208C76.0787 8.02363 76.0754 8.7779 75.7186 9.38725L71.7715 16.2251C71.4202 16.8345 70.7691 17.2089 70.0654 17.2089Z" fill="#EEC946"/>
<path d="M50.0026 100C48.9157 100 48.0352 99.1195 48.0352 98.0325V90.134C48.0352 89.0482 48.9157 88.1666 50.0026 88.1666C51.0896 88.1666 51.9701 89.0482 51.9701 90.134V98.0292C51.9712 98.5518 51.7637 99.0525 51.3948 99.4225C51.0259 99.7925 50.5252 100 50.0026 100Z" fill="#EEC946"/>
<path d="M98.0302 51.968H90.1384C89.0514 51.968 88.1709 51.0864 88.1709 50.0006C88.1709 48.9136 89.0514 48.0331 90.1384 48.0331H98.0324C99.1193 48.0331 99.9998 48.9136 99.9998 50.0006C99.9998 51.0864 99.1193 51.968 98.0324 51.968H98.0302Z" fill="#EEC946"/>
<path d="M9.86585 51.968H1.96746C0.880526 51.968 0 51.0864 0 50.0006C0 48.9136 0.880526 48.0331 1.96746 48.0331H9.86585C10.9528 48.0331 11.8333 48.9136 11.8333 50.0006C11.8333 51.0864 10.9528 51.968 9.86585 51.968Z" fill="#EEC946"/>
<path d="M74.017 93.5662C73.3132 93.5673 72.6622 93.1918 72.3098 92.5824L68.3627 85.7445C68.0059 85.1352 68.0026 84.3809 68.354 83.7694C68.7053 83.1567 69.3586 82.7802 70.0645 82.7813C70.7705 82.7834 71.4215 83.1633 71.7707 83.7771L75.7177 90.6149C76.0679 91.2232 76.0679 91.972 75.7177 92.5802C75.3663 93.1885 74.7175 93.564 74.0159 93.5662H74.017Z" fill="#EEC946"/>
<path d="M91.5934 75.984C91.2486 75.984 90.9105 75.8929 90.6118 75.7205L83.774 71.7724C83.1603 71.4243 82.7804 70.7733 82.7793 70.0662C82.7771 69.3602 83.1548 68.7081 83.7663 68.3567C84.379 68.0043 85.1321 68.0076 85.7415 68.3655L92.5793 72.3126C93.3511 72.7572 93.7277 73.6663 93.4971 74.5271C93.2655 75.3878 92.4849 75.9862 91.5934 75.984Z" fill="#EEC946"/>
<path d="M8.40494 75.984C7.51453 75.9851 6.73391 75.3867 6.50225 74.526C6.27169 73.6663 6.64828 72.7572 7.42011 72.3126L14.2513 68.3655C14.8607 68.0076 15.6138 68.0043 16.2265 68.3567C16.838 68.7081 17.2157 69.3602 17.2135 70.0662C17.2124 70.7733 16.8325 71.4243 16.2188 71.7724L9.38098 75.7205C9.08455 75.8918 8.74749 75.9829 8.40494 75.984Z" fill="#EEC946"/>
<path d="M25.981 93.5662C25.2795 93.564 24.6306 93.1885 24.2793 92.5802C23.929 91.972 23.929 91.2232 24.2793 90.6149L28.2263 83.7771C28.5754 83.1633 29.2265 82.7834 29.9324 82.7813C30.6384 82.7802 31.2916 83.1567 31.643 83.7694C31.9943 84.3809 31.991 85.1352 31.6342 85.7445L27.6872 92.5824C27.3348 93.1907 26.6848 93.5662 25.981 93.5662Z" fill="#EEC946"/>
</svg>
