<svg width="40" height="40" viewBox="0 0 40 40" fill="none" xmlns="http://www.w3.org/2000/svg">
<path fill-rule="evenodd" clip-rule="evenodd" d="M0.894957 23.9999C0.654722 23.9999 0.439776 23.8303 0.390464 23.5848C-0.0550229 21.3663 -0.119688 19.1159 0.198397 16.8963C0.505765 14.7508 1.16277 12.6806 2.15116 10.743C2.28085 10.4887 2.59129 10.3882 2.84453 10.5184C3.09777 10.6486 3.19796 10.9602 3.06826 11.2145C2.13183 13.0501 1.50939 15.0113 1.21822 17.0435C0.916933 19.146 0.978286 21.278 1.40047 23.3804C1.45671 23.6604 1.2762 23.9332 0.997312 23.9896C0.962933 23.9965 0.928674 23.9999 0.894957 23.9999Z" fill="#EEC946"/>
<path fill-rule="evenodd" clip-rule="evenodd" d="M4.28122 9.23077C4.17249 9.23077 4.06282 9.19723 3.96832 9.12764C3.7311 8.95303 3.67916 8.61743 3.8522 8.37813C6.83694 4.25059 11.2167 1.42083 16.1849 0.410199C20.5929 -0.486578 25.051 0.0934057 29.0776 2.08765C29.3411 2.21817 29.4499 2.53961 29.3205 2.80562C29.1911 3.07157 28.8727 3.18128 28.609 3.05082C24.7949 1.16171 20.5714 0.612325 16.395 1.46196C11.6882 2.41942 7.53878 5.10023 4.71111 9.01046C4.60704 9.15441 4.44524 9.23077 4.28122 9.23077Z" fill="#EEC946"/>
<path fill-rule="evenodd" clip-rule="evenodd" d="M39.4854 16.0002C39.2457 16.0002 39.0312 15.8307 38.9821 15.5852C38.0398 10.8812 35.3715 6.77315 31.4687 4.01763C31.2364 3.85355 31.1803 3.53106 31.3432 3.2973C31.5064 3.06347 31.827 3.00696 32.0593 3.17104C36.1787 6.07959 38.9951 10.4158 39.9898 15.3808C40.0458 15.6608 39.8657 15.9335 39.5875 15.99C39.5533 15.9969 39.5191 16.0002 39.4854 16.0002Z" fill="#EEC946"/>
<path fill-rule="evenodd" clip-rule="evenodd" d="M14.9289 39.3847C14.799 39.3847 14.6686 39.342 14.5633 39.255C14.3335 39.0651 14.3108 38.7358 14.5129 38.5195C16.7576 36.1162 18.4221 33.2214 19.3263 30.1479C20.2744 26.9256 20.3961 23.6179 19.6882 20.3168C19.6276 20.0346 19.8218 19.7597 20.1217 19.7028C20.4218 19.6457 20.7139 19.8285 20.7744 20.1107C21.5173 23.5737 21.3894 27.0443 20.3944 30.426C19.4457 33.6501 17.6998 36.6868 15.3453 39.2075C15.2358 39.3248 15.0827 39.3847 14.9289 39.3847Z" fill="#EEC946"/>
<path fill-rule="evenodd" clip-rule="evenodd" d="M12.4356 38.1537C12.2945 38.1537 12.1532 38.1054 12.0442 38.0085C11.8225 37.8116 11.8181 37.4884 12.0343 37.2864C13.947 35.5006 15.4215 33.4172 16.4169 31.0941C16.5294 30.8315 16.8547 30.7017 17.143 30.804C17.4315 30.9065 17.5741 31.2026 17.4615 31.4654C16.4112 33.9167 14.8553 36.1151 12.837 37.9996C12.7272 38.1022 12.5815 38.1537 12.4356 38.1537Z" fill="#EEC946"/>
<path fill-rule="evenodd" clip-rule="evenodd" d="M18.1585 40.0002C18.0474 40.0002 17.9356 39.9639 17.8413 39.8891C17.6169 39.7107 17.5771 39.3813 17.7525 39.1532C21.9655 33.6736 23.607 26.6268 22.2559 19.8197L22.2212 19.6447C22.0955 19.2169 21.8292 18.8504 21.4588 18.6003C21.0395 18.3172 20.537 18.2171 20.044 18.3182C19.1106 18.5094 18.477 19.3751 18.5353 20.3152L18.5861 20.5711C19.1228 23.2775 19.1087 26.0078 18.5442 28.6861C18.4845 28.9691 18.2103 29.1494 17.9318 29.0888C17.6533 29.0283 17.4759 28.7496 17.5355 28.4665C18.0351 26.0963 18.0794 23.6824 17.6683 21.2837L17.6577 21.2857L17.5578 20.7813C17.2402 19.1793 18.264 17.6132 19.84 17.2905C20.603 17.1338 21.3808 17.2888 22.0296 17.727C22.6784 18.1651 23.1206 18.8337 23.2748 19.6097L23.3655 20.067L23.3537 20.0709C24.6029 27.0356 22.8696 34.2006 18.5653 39.7987C18.4636 39.931 18.3118 40.0002 18.1585 40.0002Z" fill="#EEC946"/>
<path fill-rule="evenodd" clip-rule="evenodd" d="M10.5082 36.9232C10.3725 36.9232 10.2371 36.8687 10.1371 36.7609C9.94532 36.5544 9.95607 36.2302 10.161 36.0369C13.9396 32.4733 15.7825 27.2706 15.0905 22.1197C15.0528 21.8393 15.2478 21.5812 15.5259 21.5433C15.8042 21.5053 16.0599 21.7018 16.0976 21.9822C16.8337 27.4614 14.8738 32.9952 10.8553 36.785C10.7573 36.8774 10.6327 36.9232 10.5082 36.9232Z" fill="#EEC946"/>
<path fill-rule="evenodd" clip-rule="evenodd" d="M25.7189 24.6152C25.4263 24.6152 25.1888 24.3892 25.188 24.1098C25.1834 22.458 25.0058 20.7901 24.6602 19.1524L24.6188 18.9564C24.3526 17.9407 23.7085 17.0685 22.7886 16.4851C21.8107 15.865 20.6383 15.6455 19.4874 15.8671C17.7599 16.1996 16.411 17.4781 16.0509 19.1242C15.991 19.3982 15.7096 19.5741 15.4226 19.5167C15.1355 19.4595 14.9514 19.1911 15.0113 18.9171C15.4583 16.8734 17.1329 15.2863 19.2774 14.8736C20.7063 14.5983 22.1622 14.8709 23.3765 15.641C24.5907 16.4111 25.418 17.5865 25.7059 18.9505L25.7916 19.3566L25.7839 19.3597C26.089 20.931 26.2457 22.526 26.25 24.1071C26.2507 24.3869 26.0137 24.6144 25.7204 24.6152H25.7189Z" fill="#EEC946"/>
<path fill-rule="evenodd" clip-rule="evenodd" d="M21.1557 40.0002C21.0524 40.0002 20.948 39.9709 20.8563 39.9098C20.6141 39.7487 20.5522 39.427 20.7179 39.1913C23.1579 35.7195 24.7048 31.689 25.1913 27.5355C25.2245 27.2519 25.4881 27.0481 25.779 27.0805C26.0704 27.1128 26.2798 27.3691 26.2465 27.6527C25.7406 31.9729 24.1319 36.1647 21.5944 39.775C21.4916 39.9214 21.3251 40.0002 21.1557 40.0002Z" fill="#EEC946"/>
<path fill-rule="evenodd" clip-rule="evenodd" d="M8.65893 35.6922C8.50948 35.6922 8.36078 35.6317 8.25524 35.5135C8.06231 35.2975 8.08651 34.9706 8.30932 34.7835C10.1929 33.2015 11.6262 31.1604 12.454 28.8808C13.2491 26.6913 13.4598 24.3364 13.0703 22.0388L13.066 22.0395L12.9635 21.5471C12.5433 19.5272 12.9594 17.4698 14.1354 15.7537C15.3111 14.0377 17.1059 12.8685 19.1889 12.4612C19.9133 12.3195 20.6514 12.2755 21.3827 12.3306C21.6766 12.3528 21.8963 12.6018 21.8734 12.8867C21.8505 13.1717 21.5944 13.3846 21.2999 13.3626C20.667 13.3148 20.0278 13.353 19.3999 13.4758C17.5963 13.8285 16.0424 14.8408 15.0244 16.3265C14.0879 17.6932 13.708 19.31 13.9363 20.9216L14.0234 21.3402C14.5714 23.9755 14.3769 26.7019 13.4608 29.2245C12.5715 31.6736 11.0317 33.8664 9.0081 35.5659C8.90712 35.6507 8.78274 35.6922 8.65893 35.6922Z" fill="#EEC946"/>
<path fill-rule="evenodd" clip-rule="evenodd" d="M23.7882 39.3844C23.7018 39.3844 23.6144 39.3612 23.5347 39.3123C23.2954 39.1659 23.2153 38.8447 23.3556 38.5951C26.7674 32.5249 27.9119 25.3806 26.5782 18.4783L26.5343 18.2513C26.1148 16.4075 24.9758 14.8322 23.3826 13.9047C23.1404 13.7637 23.0536 13.4445 23.1887 13.1918C23.3237 12.939 23.6295 12.8483 23.8717 12.9893C25.7861 14.1039 27.1327 16.0285 27.5661 18.2697L27.6522 18.7149L27.6454 18.7174C28.895 25.7338 27.6853 32.9632 24.2217 39.1254C24.1283 39.2918 23.9605 39.3844 23.7882 39.3844Z" fill="#EEC946"/>
<path fill-rule="evenodd" clip-rule="evenodd" d="M6.80923 34.4615C6.64751 34.4615 6.48709 34.3951 6.37657 34.2668C6.18095 34.0397 6.21596 33.7048 6.45476 33.5189C8.10989 32.2296 9.39461 30.5449 10.1701 28.6468C10.2818 28.3731 10.6057 28.2375 10.8934 28.3439C11.1811 28.4502 11.3237 28.7582 11.2119 29.0317C10.3669 31.1001 8.96678 32.9361 7.16306 34.3411C7.0592 34.4221 6.93379 34.4615 6.80923 34.4615Z" fill="#EEC946"/>
<path fill-rule="evenodd" clip-rule="evenodd" d="M30.2945 30.1539C30.2658 30.1539 30.2366 30.1516 30.2074 30.1468C29.9171 30.0996 29.7205 29.8285 29.7683 29.5414C30.3872 25.8214 30.3159 22.0443 29.5563 18.3148L29.5274 18.1729C29.0091 15.8144 27.6087 13.7849 25.5719 12.4462C23.4949 11.081 21.0046 10.5977 18.5602 11.0856C16.115 11.5732 14.0084 12.9734 12.6283 15.0283C11.3373 16.9504 10.8265 19.2302 11.1696 21.4963L11.2645 21.9631C11.5259 23.2475 11.5875 24.551 11.4478 25.8374C11.4164 26.1268 11.1537 26.3361 10.8614 26.305C10.5689 26.274 10.3573 26.0142 10.3887 25.7249C10.498 24.7179 10.4727 23.699 10.3136 22.6889L10.2087 22.1741C9.65917 19.4795 10.2033 16.7346 11.741 14.4452C13.2786 12.1558 15.6256 10.5958 18.3496 10.0525C21.0729 9.50913 23.8473 10.0475 26.1615 11.5684C28.4757 13.0895 30.0524 15.4111 30.6015 18.1055L30.6514 18.3512L30.6497 18.3532C31.3885 22.128 31.4457 25.9482 30.8194 29.7125C30.7765 29.9706 30.5506 30.1539 30.2945 30.1539Z" fill="#EEC946"/>
<path fill-rule="evenodd" clip-rule="evenodd" d="M26.7675 38.7692C26.6914 38.7692 26.6141 38.752 26.5411 38.7156C26.284 38.5876 26.1772 38.2711 26.3024 38.0085C27.161 36.2086 27.8522 34.319 28.357 32.3921C28.4309 32.11 28.7146 31.9429 28.991 32.0179C29.2672 32.0935 29.4311 32.3834 29.3573 32.6657C28.8354 34.6577 28.1208 36.6112 27.2332 38.4718C27.1436 38.6598 26.9593 38.7692 26.7675 38.7692Z" fill="#EEC946"/>
<path fill-rule="evenodd" clip-rule="evenodd" d="M31.0324 36.923C30.971 36.923 30.9087 36.9118 30.8479 36.8883C30.5815 36.7849 30.4481 36.482 30.5501 36.2116C32.7606 30.3498 33.2917 23.99 32.0883 17.8106L32.0614 17.678C31.7321 16.0219 31.0718 14.4951 30.099 13.1401C29.9311 12.9062 29.9818 12.5784 30.2125 12.4081C30.4431 12.2377 30.7662 12.2893 30.9342 12.5232C31.9527 13.9418 32.6569 15.5325 33.0293 17.2544L33.0314 17.2558L33.075 17.4714C34.3507 23.887 33.8113 30.4968 31.515 36.5861C31.4363 36.7947 31.2403 36.923 31.0324 36.923Z" fill="#EEC946"/>
<path fill-rule="evenodd" clip-rule="evenodd" d="M27.6028 11.0771C27.4865 11.0771 27.3696 11.0394 27.2725 10.9618C24.5753 8.80715 21.0703 7.95634 17.6558 8.62771C16.7771 8.80037 15.9221 9.07102 15.1144 9.43222C14.8524 9.54931 14.5427 9.43716 14.4226 9.18156C14.3025 8.92596 14.4175 8.62384 14.6795 8.50663C15.5602 8.11282 16.4922 7.81772 17.4497 7.62959C21.1719 6.89748 24.9933 7.82509 27.9338 10.1741C28.1567 10.3523 28.1895 10.673 28.0068 10.8906C27.9038 11.0134 27.7539 11.0771 27.6028 11.0771Z" fill="#EEC946"/>
<path fill-rule="evenodd" clip-rule="evenodd" d="M4.27512 32C4.12155 32 3.96939 31.9337 3.86569 31.8062C3.68415 31.5828 3.72022 31.2561 3.94609 31.0767C6.53428 29.0208 7.79127 25.7975 7.28592 22.5827L7.20319 22.1771C6.26829 17.5931 7.97016 12.9126 11.6444 9.96229C11.8694 9.78164 12.1999 9.81554 12.3826 10.038C12.5653 10.2605 12.531 10.5872 12.306 10.7678C9.05739 13.3764 7.48971 17.4591 8.14844 21.5158L8.24111 21.9699C9.00195 25.6994 7.60808 29.4989 4.60347 31.8856C4.50651 31.9627 4.39041 32 4.27512 32Z" fill="#EEC946"/>
<path fill-rule="evenodd" clip-rule="evenodd" d="M3.04145 30.1539C2.88795 30.1539 2.7354 30.0903 2.62833 29.9668C2.43511 29.7438 2.46326 29.4099 2.69132 29.2208C4.55328 27.6776 5.45402 25.3048 5.08707 22.964L5.02224 22.6503C4.85939 21.8613 4.75933 21.0516 4.72499 20.2436C4.71253 19.9515 4.94458 19.7049 5.24316 19.6928C5.54175 19.6815 5.79391 19.9076 5.80637 20.1996C5.83173 20.7956 5.89542 21.3924 5.9961 21.9797L6.09078 22.4392C6.67195 25.2584 5.63744 28.1664 3.39107 30.0285C3.28937 30.1127 3.1651 30.1539 3.04145 30.1539Z" fill="#EEC946"/>
<path fill-rule="evenodd" clip-rule="evenodd" d="M35.0892 19.6921C34.8286 19.6921 34.6002 19.5033 34.5607 19.2405C34.4789 18.696 34.3845 18.1511 34.2797 17.617L34.2261 17.3629C33.4698 13.6501 31.2979 10.4511 28.1104 8.35533C24.9231 6.25955 21.1016 5.5177 17.3496 6.26629C14.4637 6.84212 11.8666 8.25478 9.83899 10.3515C7.85672 12.4014 6.55071 14.9563 6.06215 17.7401C6.01163 18.0282 5.73496 18.2213 5.44353 18.1711C5.15242 18.1211 4.9574 17.847 5.00798 17.5589C5.53306 14.5671 6.9363 11.8217 9.06601 9.61937C11.2455 7.36548 14.0368 5.84707 17.1382 5.22823C21.1702 4.42377 25.2771 5.22112 28.7025 7.47339C32.0183 9.65352 34.3115 12.9443 35.1921 16.7717L35.1972 16.7721L35.2777 17.1538C35.4066 17.7861 35.5215 18.4358 35.6191 19.0846C35.6626 19.3738 35.4609 19.6432 35.1687 19.6863C35.1419 19.6902 35.1154 19.6921 35.0892 19.6921Z" fill="#EEC946"/>
<path fill-rule="evenodd" clip-rule="evenodd" d="M34.3274 33.8463C34.2782 33.8463 34.2281 33.8406 34.1784 33.8289C33.8705 33.7563 33.6875 33.4771 33.7696 33.2051C34.8657 29.5748 35.2856 25.832 35.0178 22.0804C34.9977 21.7995 35.2393 21.5574 35.5572 21.5397C35.8754 21.5212 36.1493 21.7353 36.1693 22.0162C36.4452 25.878 36.0128 29.7309 34.8845 33.4678C34.8156 33.6957 34.5824 33.8463 34.3274 33.8463Z" fill="#EEC946"/>
<path fill-rule="evenodd" clip-rule="evenodd" d="M1.7759 28.3076C1.64791 28.3076 1.51967 28.261 1.41836 28.1668C1.20535 27.9686 1.19275 27.6347 1.39033 27.421C2.30119 26.4352 2.71055 25.0793 2.5035 23.7611L2.46508 23.5807C1.53725 18.9641 2.45678 14.2614 5.05419 10.3389C7.65159 6.41651 11.6159 3.7437 16.2169 2.81291C18.1493 2.42185 20.11 2.35678 22.0444 2.61936C22.3323 2.6584 22.5342 2.92425 22.4952 3.21317C22.4562 3.50197 22.1909 3.70465 21.9034 3.66536C20.0854 3.41863 18.2422 3.47988 16.4248 3.84769C12.0992 4.72272 8.37231 7.23553 5.93044 10.9231C3.54377 14.5272 2.66407 18.8323 3.43981 23.0774L3.50233 23.371C3.84499 25.077 3.34385 26.8593 2.16171 28.1387C2.05806 28.2508 1.91716 28.3076 1.7759 28.3076Z" fill="#EEC946"/>
<path fill-rule="evenodd" clip-rule="evenodd" d="M37.9033 29.5387C37.8808 29.5387 37.8584 29.5374 37.8356 29.5346C37.5387 29.4987 37.3281 29.2357 37.365 28.9474C37.8773 24.9502 37.7364 20.9065 36.9465 16.9224L36.8732 16.5849C35.6558 10.7168 31.2504 5.93464 25.3765 4.10472C25.0915 4.0159 24.9347 3.71957 25.026 3.44279C25.1174 3.16602 25.4226 3.01379 25.7072 3.10236C31.7897 4.99729 36.3916 9.86905 37.8255 15.885L37.8329 15.8839L37.9399 16.3762C38.8131 20.581 38.9813 24.8543 38.4401 29.0774C38.4059 29.3437 38.1726 29.5387 37.9033 29.5387Z" fill="#EEC946"/>
</svg>
