<svg width="38" height="23" viewBox="0 0 38 23" fill="none" xmlns="http://www.w3.org/2000/svg">
<rect width="38" height="23" rx="4" fill="#101010" fill-opacity="0.05"/>
<path d="M15.928 6.35889L14.2388 16.6201H16.9388L18.6269 6.35889H15.928ZM24.072 10.5387C23.1285 10.0839 22.5501 9.77692 22.5501 9.31173C22.5616 8.88877 23.0392 8.45545 24.1057 8.45545C24.9829 8.43394 25.6276 8.63517 26.1167 8.83539L26.3617 8.94214L26.7288 6.79525C26.1955 6.59402 25.3499 6.37229 24.3055 6.37229C21.6392 6.37229 19.7618 7.72551 19.7501 9.66093C19.7281 11.0892 21.0943 11.8817 22.1167 12.3571C23.1611 12.8448 23.5167 13.1611 23.5167 13.5944C23.5051 14.2597 22.6721 14.5666 21.8949 14.5666C20.8179 14.5666 20.2394 14.4085 19.3612 14.0378L19.0056 13.8797L18.6281 16.1109C19.2623 16.3861 20.4287 16.6283 21.6394 16.6407C24.4729 16.6407 26.3166 15.308 26.3398 13.2453C26.3491 12.1138 25.6287 11.2471 24.072 10.5387ZM33.6506 6.39064H31.5617C30.918 6.39064 30.4289 6.57138 30.1502 7.21618L26.1397 16.6201H28.9732L29.7536 14.5841H32.9238L33.3287 16.6283H35.8278L33.6506 6.39064ZM30.5394 12.5294C30.5941 12.5346 31.627 9.20588 31.627 9.20588L32.4495 12.5294C32.4495 12.5294 31.0727 12.5294 30.5394 12.5294ZM11.9828 6.35889L9.33749 13.3304L9.04933 11.9556C8.56021 10.3692 7.02676 8.64542 5.31543 7.78914L7.73771 16.6098H10.5944L14.8395 6.36001H11.9828V6.35889Z" fill="#2394BC"/>
<path d="M8.15981 7.68415C7.95366 6.90174 7.29624 6.37405 6.40337 6.36279H2.21404L2.1709 6.55265C5.43887 7.33912 8.18184 9.75909 9.07171 12.0354L8.15981 7.68415Z" fill="#EFC75E"/>
</svg>
